# xmcd CD database file
#
# Track frame offsets:
#	150
#	58597
#	80195
#	109213
#	137940
#	177783
#	207048
#	239170
#	265786
#	288001
#	318789
#	344951
#
# Disc length: 4885 seconds
#
# Revision: 0
# Processed by: cddbd v1.5.2PL0 Copyright (c) Steve Scherf et al.
# Submitted via: CDex 2.00
#
DISCID=ba13130c
DTITLE=Jackie McLean - Lights Out_A Fickle Sonance
DYEAR=1900
DGENRE=Jazz
TTITLE0=Lights Out
TTITLE1=Up
TTITLE2=Lorraine
TTITLE3=A Foggy Day
TTITLE4=Kerplunk
TTITLE5=Inding
TTITLE6=Five Will Get You Ten
TTITLE7=Subdued
TTITLE8=Sundu
TTITLE9=A Fickle Sonance
TTITLE10=Enitnerrut
TTITLE11=Lost
EXTD=
EXTT0=
EXTT1=
EXTT2=
EXTT3=
EXTT4=
EXTT5=
EXTT6=
EXTT7=
EXTT8=
EXTT9=
EXTT10=
EXTT11=
PLAYORDER=
